<svg width="420" height="420" viewBox="0 0 420 420" fill="none" xmlns="http://www.w3.org/2000/svg">
<rect width="420" height="420" fill="#0074D9"/>
<path d="M55.31 243V178.92H73.31V243H55.31ZM69.89 220.23V205.29H101.39V220.23H69.89ZM69.89 193.86V178.92H102.74V193.86H69.89ZM105.463 243V177.12H123.103V243H105.463ZM150.557 244.08C145.397 244.08 140.867 243.12 136.967 241.2C133.067 239.22 130.007 236.49 127.787 233.01C125.627 229.47 124.547 225.42 124.547 220.86C124.547 216.36 125.597 212.37 127.697 208.89C129.857 205.41 132.797 202.68 136.517 200.7C140.237 198.66 144.437 197.64 149.117 197.64C153.737 197.64 157.817 198.6 161.357 200.52C164.897 202.38 167.657 204.99 169.637 208.35C171.677 211.71 172.697 215.55 172.697 219.87C172.697 220.77 172.637 221.73 172.517 222.75C172.457 223.71 172.277 224.85 171.977 226.17L132.017 226.44V215.64L165.407 215.37L157.217 220.14C157.217 217.74 156.917 215.79 156.317 214.29C155.777 212.73 154.937 211.56 153.797 210.78C152.657 210 151.217 209.61 149.477 209.61C147.677 209.61 146.117 210.06 144.797 210.96C143.477 211.86 142.457 213.15 141.737 214.83C141.077 216.51 140.747 218.55 140.747 220.95C140.747 223.41 141.107 225.48 141.827 227.16C142.607 228.78 143.717 230.01 145.157 230.85C146.597 231.69 148.397 232.11 150.557 232.11C152.657 232.11 154.487 231.78 156.047 231.12C157.667 230.4 159.137 229.29 160.457 227.79L169.277 236.52C167.057 239.04 164.387 240.93 161.267 242.19C158.147 243.45 154.577 244.08 150.557 244.08ZM196.956 244.08C191.796 244.08 187.266 243.12 183.366 241.2C179.466 239.22 176.406 236.49 174.186 233.01C172.026 229.47 170.946 225.42 170.946 220.86C170.946 216.36 171.996 212.37 174.096 208.89C176.256 205.41 179.196 202.68 182.916 200.7C186.636 198.66 190.836 197.64 195.516 197.64C200.136 197.64 204.216 198.6 207.756 200.52C211.296 202.38 214.056 204.99 216.036 208.35C218.076 211.71 219.096 215.55 219.096 219.87C219.096 220.77 219.036 221.73 218.916 222.75C218.856 223.71 218.676 224.85 218.376 226.17L178.416 226.44V215.64L211.806 215.37L203.616 220.14C203.616 217.74 203.316 215.79 202.716 214.29C202.176 212.73 201.336 211.56 200.196 210.78C199.056 210 197.616 209.61 195.876 209.61C194.076 209.61 192.516 210.06 191.196 210.96C189.876 211.86 188.856 213.15 188.136 214.83C187.476 216.51 187.146 218.55 187.146 220.95C187.146 223.41 187.506 225.48 188.226 227.16C189.006 228.78 190.116 230.01 191.556 230.85C192.996 231.69 194.796 232.11 196.956 232.11C199.056 232.11 200.886 231.78 202.446 231.12C204.066 230.4 205.536 229.29 206.856 227.79L215.676 236.52C213.456 239.04 210.786 240.93 207.666 242.19C204.546 243.45 200.976 244.08 196.956 244.08ZM247.585 243.9C244.945 243.9 242.455 243.39 240.115 242.37C237.775 241.35 235.795 240 234.175 238.32C232.555 236.58 231.505 234.69 231.025 232.65V208.17C231.505 206.13 232.555 204.33 234.175 202.77C235.795 201.21 237.775 200.01 240.115 199.17C242.455 198.27 244.945 197.82 247.585 197.82C251.965 197.82 255.775 198.81 259.015 200.79C262.315 202.71 264.865 205.41 266.665 208.89C268.525 212.37 269.455 216.36 269.455 220.86C269.455 225.36 268.525 229.35 266.665 232.83C264.865 236.25 262.315 238.95 259.015 240.93C255.775 242.91 251.965 243.9 247.585 243.9ZM220.315 243V177.12H237.955V209.61L235.075 220.32L237.505 231.12V243H220.315ZM244.345 228.42C245.785 228.42 247.045 228.09 248.125 227.43C249.265 226.77 250.135 225.87 250.735 224.73C251.395 223.59 251.725 222.3 251.725 220.86C251.725 219.42 251.395 218.13 250.735 216.99C250.135 215.85 249.265 214.95 248.125 214.29C246.985 213.63 245.695 213.3 244.255 213.3C242.815 213.3 241.525 213.63 240.385 214.29C239.305 214.95 238.465 215.85 237.865 216.99C237.265 218.07 236.965 219.36 236.965 220.86C236.965 222.36 237.265 223.68 237.865 224.82C238.525 225.96 239.395 226.86 240.475 227.52C241.615 228.12 242.905 228.42 244.345 228.42ZM292.257 244.08C287.937 244.08 284.097 243.24 280.737 241.56C277.437 239.88 274.827 237.54 272.907 234.54C270.987 231.54 270.027 228.12 270.027 224.28V198.72H287.667V224.46C287.667 225.36 287.847 226.17 288.207 226.89C288.627 227.61 289.167 228.18 289.827 228.6C290.547 228.96 291.357 229.14 292.257 229.14C293.517 229.14 294.567 228.72 295.407 227.88C296.307 226.98 296.757 225.84 296.757 224.46V198.72H314.397V224.28C314.397 228.18 313.437 231.63 311.517 234.63C309.657 237.57 307.047 239.88 303.687 241.56C300.387 243.24 296.577 244.08 292.257 244.08ZM336.586 263.34C331.606 263.34 327.196 262.5 323.356 260.82C319.516 259.2 316.546 256.89 314.446 253.89L324.886 243.54C326.266 245.04 327.796 246.21 329.476 247.05C331.156 247.95 333.196 248.4 335.596 248.4C338.476 248.4 340.726 247.71 342.346 246.33C344.026 244.95 344.866 242.94 344.866 240.3V228.6L347.746 219.06L345.316 209.61V198.72H362.506V239.58C362.506 244.44 361.366 248.64 359.086 252.18C356.806 255.72 353.716 258.45 349.816 260.37C345.916 262.35 341.506 263.34 336.586 263.34ZM335.776 241.2C331.636 241.2 327.976 240.24 324.796 238.32C321.616 236.4 319.126 233.79 317.326 230.49C315.526 227.19 314.626 223.53 314.626 219.51C314.626 215.43 315.526 211.77 317.326 208.53C319.126 205.23 321.616 202.62 324.796 200.7C327.976 198.78 331.636 197.82 335.776 197.82C338.356 197.82 340.726 198.27 342.886 199.17C345.106 200.01 346.936 201.21 348.376 202.77C349.876 204.33 350.836 206.13 351.256 208.17V230.85C350.836 232.89 349.876 234.69 348.376 236.25C346.936 237.81 345.106 239.04 342.886 239.94C340.726 240.78 338.356 241.2 335.776 241.2ZM339.016 226.17C340.456 226.17 341.686 225.84 342.706 225.18C343.726 224.52 344.506 223.68 345.046 222.66C345.586 221.64 345.856 220.56 345.856 219.42C345.856 218.28 345.586 217.2 345.046 216.18C344.506 215.16 343.726 214.32 342.706 213.66C341.746 213 340.546 212.67 339.106 212.67C337.726 212.67 336.526 213 335.506 213.66C334.486 214.32 333.706 215.19 333.166 216.27C332.626 217.29 332.356 218.34 332.356 219.42C332.356 220.44 332.626 221.49 333.166 222.57C333.706 223.59 334.456 224.46 335.416 225.18C336.436 225.84 337.636 226.17 339.016 226.17Z" fill="white"/>
</svg>
